<svg  xmlns="http://www.w3.org/2000/svg" version="1.1" viewBox="0 0 250 250" width="100" height="100">
<title>Federación de Fútbol de Chile</title>
<defs><clipPath id="clipPath360"><path d="m0,800,624.07,0,0-800h-624.07v800z"/></clipPath></defs>
<g transform="translate(-312.99188,-344.36961)">
<g transform="matrix(2.5198311,0,0,-2.5198565,239.73459,2324.6767)">
<g clip-path="url(#clipPath360)">
<g transform="translate(29.0723,736.2749)">
<path fill-rule="evenodd" fill="#F00" d="M0,0c0,27.397,22.21,49.606,49.606,49.606,27.398,0,49.607-22.209,49.607-49.606s-22.209-49.606-49.607-49.606c-27.396,0-49.606,22.209-49.606,49.606"/>
</g>
<g transform="translate(30.8496,736.2749)">
<path fill-rule="evenodd" fill="#FFF" d="M0,0c0,26.416,21.414,47.83,47.829,47.83,26.416,0,47.829-21.414,47.829-47.83s-21.413-47.829-47.829-47.829c-26.415,0-47.829,21.413-47.829,47.829"/>
</g>
<g transform="translate(33.2188,736.2749)">
<path fill-rule="evenodd" fill="#00009a" d="M0,0c0,25.107,20.354,45.46,45.46,45.46,25.107,0,45.46-20.353,45.46-45.46s-20.353-45.46-45.46-45.46c-25.106,0-45.46,20.353-45.46,45.46"/>
</g>
<g transform="translate(45.9658,736.2749)">
<path fill-rule="evenodd" fill="#FFF" d="M0,0c0,18.067,14.646,32.713,32.713,32.713s32.714-14.646,32.714-32.713-14.647-32.713-32.714-32.713-32.713,14.646-32.713,32.713"/>
</g>
<g transform="translate(35.7168,740.0747)">
<path fill-rule="evenodd" fill="#FFF" d="M0,0-0.059-1.714,2.358-1.798,2.412-0.266,3.499-0.304,3.445-1.836,7.742-1.986,7.674-3.956-1.279-3.644-1.15,0.04,0,0z"/>
</g>
<g transform="translate(44.4932,745.1909)">
<path fill-rule="evenodd" fill="#FFF" d="m0,0-0.734-3.781-8.794,1.709,0.73,3.757,1.131-0.22-0.354-1.822,2.374-0.462,0.319,1.644l1.067-0.207-0.319-1.644,3.091-0.601,0.358,1.847,1.131-0.22z"/>
</g>
<g transform="translate(44.3262,749.7124)">
<path fill-rule="evenodd" fill="#FFF" d="M0,0-5.332,2.047c-0.291,0.112-0.505-0.007-0.64-0.358l6.213-2.384c0.134,0.35,0.054,0.582-0.241,0.695m0.609-2.948-8.363,3.21,0.88,2.29c0.19,0.498,0.497,0.89,0.917,1.176,0.419,0.286,0.908,0.321,1.469,0.106l5.062-1.943c0.521-0.2,0.856-0.537,1.006-1.013,0.15-0.475,0.121-0.983-0.086-1.525l-0.885-2.301z"/>
</g>
<g transform="translate(49.3154,755.8491)">
<path fill-rule="evenodd" fill="#FFF" d="M0,0-1.984-3.302-9.662,1.312-7.691,4.593-6.704,4-7.66,2.408-5.587,1.163-4.725,2.598-3.792,2.038-4.654,0.603-1.956-1.02-0.987,0.593,0,0z"/>
</g>
<g transform="translate(47.3721,762.9634)">
<path fill-rule="evenodd" fill="#FFF" d="M0,0-1.13,0.948c-0.239,0.201-0.488,0.148-0.746-0.159l1.854-1.555c0.257,0.307,0.265,0.562,0.022,0.766m5.948-2.051-1.26-1.502c-0.331,0.001-0.951,0.384-1.86,1.147l-0.011,0.008-0.404,0.354c-0.564,0.486-0.854,0.735-0.867,0.746-0.233,0.195-0.479,0.14-0.735-0.167l3.293-2.764-1.267-1.51-6.861,5.759,1.561,1.861c0.357,0.424,0.763,0.712,1.222,0.863,0.457,0.151,0.897,0.05,1.318-0.303l0.822-0.691c0.534-0.446,0.633-1.06,0.298-1.84,0.669,0.499,1.309,0.493,1.919-0.018l0.735-0.651c1.098-0.921,1.796-1.352,2.097-1.292"/>
</g>
<g transform="translate(54.4473,766.7378)">
<path fill-rule="evenodd" fill="#FFF" d="M0,0-1.902,1.902-0.427-0.345,0,0zm4.197-1.294-1.521-1.232-1.772,1.661-0.675-0.547,1.253-2.08-1.521-1.233-4.498,7.885,1.954,1.583,6.78-6.037z"/>
</g>
<g transform="translate(61.1533,773.5146)">
<path fill-rule="evenodd" fill="#FFF" d="M0,0-1.582-0.841-2.41,0.718c-0.069,0.128-0.185,0.149-0.346,0.063-0.169-0.09-0.22-0.199-0.151-0.327l2.907-5.469c0.067-0.128,0.188-0.147,0.356-0.057,0.163,0.087,0.209,0.194,0.14,0.322l-1.038,1.954,1.582,0.841,1.069-2.01c0.199-0.376,0.175-0.776-0.073-1.198-0.249-0.423-0.605-0.758-1.07-1.005-1.344-0.714-2.268-0.598-2.772,0.35l-2.704,5.086c-0.544,1.025-0.145,1.895,1.198,2.609,1.204,0.64,2.053,0.492,2.549-0.442l0.763-1.435z"/>
</g>
<g transform="translate(67.2227,769.6729)">
<path fill-rule="evenodd" fill="#FFF" d="M0,0-1.839-0.707-5.05,7.656-3.209,8.363,0,0z"/>
</g>
<g transform="translate(71.0176,772.1812)">
<path fill-rule="evenodd" fill="#FFF" d="M0,0-1.266,5.959c-0.038,0.175-0.158,0.241-0.363,0.198-0.213-0.046-0.301-0.156-0.264-0.331l1.268-5.959c0.037-0.175,0.162-0.24,0.375-0.195,0.204,0.044,0.287,0.153,0.25,0.328m-2.521-0.446-1.198,5.634c-0.242,1.136,0.373,1.86,1.844,2.172,1.449,0.308,2.295-0.101,2.534-1.228l1.198-5.635c0.108-0.509-0.01-0.943-0.356-1.304-0.347-0.36-0.845-0.61-1.494-0.748-1.462-0.311-2.306,0.059-2.528,1.109"/>
</g>
<g transform="translate(79.9629,771.6113)">
<path fill-rule="evenodd" fill="#FFF" d="m0,0-2.021-0.071-1.522,4.723,0.166-4.77-1.636-0.057-0.313,8.952,2.238,0.078,1.281-4.043-0.142,4.083,1.636,0.058l0.313-8.953z"/>
</g>
<g transform="translate(87.9824,771.9897)">
<path fill-rule="evenodd" fill="#FFF" d="M0,0,1.382,5.541c0.075,0.303-0.069,0.5-0.433,0.591l-1.611-6.457c0.365-0.091,0.586,0.017,0.662,0.325m-2.852-0.965,2.167,8.692,2.38-0.594c0.518-0.129,0.945-0.384,1.279-0.766,0.335-0.382,0.43-0.864,0.284-1.446l-1.311-5.261c-0.136-0.542-0.429-0.916-0.883-1.122-0.454-0.207-0.961-0.24-1.524-0.1l-2.392,0.597z"/>
</g>
<g transform="translate(94.6758,767.769)">
<path fill-rule="evenodd" fill="#FFF" d="M0,0-3.52,1.567,0.124,9.75,3.621,8.194,3.152,7.142,1.455,7.896,0.473,5.688,2.002,5.006,1.561,4.012,0.03,4.693-1.251,1.817,0.469,1.052,0,0z"/>
</g>
<g transform="translate(106.5801,769.2251)">
<path fill-rule="evenodd" fill="#FFF" d="M0,0-1.369,1.032-2.825-0.899-1.6-1.822-2.255-2.691-3.479-1.769-6.067-5.202-7.641-4.016-2.25,3.138,0.693,0.92,0,0z"/>
</g>
<g transform="translate(109.6367,767.9546)">
<path fill-rule="evenodd" fill="#FFF" d="M0,0,1.344-1.441-4.15-6.564c-0.131-0.123-0.121-0.264,0.029-0.424,0.146-0.158,0.285-0.176,0.416-0.054l5.494,5.124,1.344-1.442-5.42-5.055c-0.377-0.351-0.817-0.467-1.317-0.346-0.499,0.12-0.978,0.427-1.435,0.917-0.424,0.454-0.698,0.934-0.823,1.442-0.126,0.506,0.018,0.953,0.432,1.339l5.43,5.063z"/>
</g>
<g transform="translate(116.0234,757.854)">
<path fill-rule="evenodd" fill="#FFF" d="m0,0-0.6,0.922-6.536-4.245-1.073,1.654,6.535,4.244-0.598,0.922,0.976,0.634l2.273-3.497-0.977-0.634z"/>
</g>
<g transform="translate(112.7744,750.5024)">
<path fill-rule="evenodd" fill="#FFF" d="M0,0,2.071,0.923c0.286,0.127,0.354,0.358,0.205,0.693l-2.933-1.306c0.148-0.336,0.368-0.438,0.657-0.31m3.822,1.703,1.395,0.62c0.286,0.127,0.353,0.358,0.204,0.694l-2.256-1.005c0.148-0.335,0.368-0.438,0.657-0.309m-6.334-0.061,8.184,3.643,0.944-2.119c0.225-0.507,0.306-0.999,0.242-1.474-0.064-0.476-0.349-0.826-0.854-1.051l-1.136-0.506c-0.573-0.255-1.135-0.085-1.681,0.51,0.146-0.82-0.084-1.364-0.69-1.634l-1.586-0.707c-0.541-0.24-1.024-0.244-1.449-0.012-0.426,0.233-0.747,0.594-0.963,1.082l-1.011,2.268z"/>
</g>
<g transform="translate(114.5566,744.1196)">
<path fill-rule="evenodd" fill="#FFF" d="M0,0,5.959,1.267c0.175,0.037,0.24,0.158,0.196,0.362-0.044,0.213-0.155,0.301-0.329,0.264l-5.961-1.267c-0.174-0.037-0.238-0.162-0.193-0.375,0.044-0.205,0.152-0.288,0.328-0.251m-0.447,2.522,5.635,1.197c1.135,0.242,1.859-0.373,2.171-1.844,0.309-1.45-0.1-2.294-1.228-2.534l-5.635-1.198c-0.508-0.108-0.943,0.011-1.304,0.357-0.36,0.345-0.61,0.843-0.748,1.493-0.31,1.463,0.06,2.306,1.109,2.529"/>
</g>
<g transform="translate(114.042,736.5762)">
<path fill-rule="evenodd" fill="#FFF" d="M0,0-0.257,3.676,8.68,4.301,8.817,2.335,1.029,1.791,1.149,0.08,0,0z"/>
</g>
<g transform="translate(58.9297,699.5732)">
<path fill-rule="evenodd" fill="#FFF" d="M0,0,3.025,4.843c0.166,0.265,0.09,0.497-0.228,0.696l-3.526-5.643c0.319-0.199,0.561-0.164,0.729,0.104m-3.012-0.037,4.748,7.598,2.08-1.3c0.453-0.283,0.78-0.658,0.979-1.125,0.201-0.466,0.143-0.953-0.176-1.462l-2.873-4.599c-0.296-0.473-0.691-0.738-1.186-0.794-0.496-0.056-0.989,0.069-1.48,0.376l-2.092,1.306z"/>
</g>
<g transform="translate(66.4063,694.4072)">
<path fill-rule="evenodd" fill="#FFF" d="M0,0-3.619,1.317-0.556,9.735,3.041,8.426,2.646,7.344,0.902,7.979,0.075,5.706,1.648,5.133,1.277,4.111-0.297,4.684-1.373,1.726,0.395,1.082,0,0z"/>
</g>
<g transform="translate(78.9688,698.4761)">
<path fill-rule="evenodd" fill="#FFF" d="m0,0-1.789,0.094,0.092,1.763c0.009,0.145-0.08,0.222-0.263,0.232-0.192,0.01-0.291-0.058-0.299-0.203l-0.324-6.184c-0.007-0.145,0.084-0.223,0.276-0.233,0.183-0.01,0.28,0.058,0.286,0.204l0.117,2.21,1.789-0.094-0.12-2.274c-0.022-0.426-0.248-0.755-0.679-0.99-0.432-0.233-0.909-0.337-1.436-0.309-1.519,0.079-2.251,0.655-2.195,1.727l0.303,5.752c0.06,1.159,0.85,1.699,2.369,1.619,1.361-0.071,2.014-0.635,1.958-1.691l-0.085-1.623z"/>
</g>
<g transform="translate(86.1152,692.7988)">
<path fill-rule="evenodd" fill="#FFF" d="M0,0-1.967-0.103-2.191,4.19-2.729,4.163-2.504-0.131-4.472-0.235-4.941,8.711-2.973,8.814-2.786,5.249-2.249,5.277-2.437,8.843-0.469,8.945,0,0z"/>
</g>
<g transform="translate(91.2559,693.8633)">
<path fill-rule="evenodd" fill="#FFF" d="M0,0-1.912-0.477-4.08,8.215-2.168,8.692,0,0z"/>
</g>
<g transform="translate(97.7441,696.3506)">
<path fill-rule="evenodd" fill="#FFF" d="M0,0-3.367-1.499-7.012,6.685-5.211,7.486-2.035,0.355-0.469,1.053,0,0z"/>
</g>
<g transform="translate(103.668,700.2236)">
<path fill-rule="evenodd" fill="#FFF" d="M0,0-3.156-2.21-8.295,5.128-5.159,7.323-4.498,6.38-6.02,5.315-4.632,3.334-3.261,4.295-2.636,3.404-4.009,2.443-2.201-0.136-0.661,0.943,0,0z"/>
</g>
<g transform="translate(78.6787,712.1987)">
<path fill-rule="nonzero" fill="#F00" d="m0,0c-1.571,1.929-2.28,2.717-4.425,3.713-5.181,2.409-14.187,0.032-17.775,6.479-2.734,4.913-1.7,8.081-0.218,11.003h44.735c1.483-2.922,2.516-6.09-0.217-11.003-3.587-6.447-12.593-4.07-17.775-6.479-2.145-0.996-4.325-3.713-4.325-3.713"/>
</g>
<g transform="translate(78.6787,712.1987)">
<path stroke-linejoin="miter" d="m0,0c-1.571,1.929-2.28,2.717-4.425,3.713-5.181,2.409-14.187,0.032-17.775,6.479-2.734,4.913-1.7,8.081-0.218,11.003h44.735c1.483-2.922,2.516-6.09-0.217-11.003-3.587-6.447-12.593-4.07-17.775-6.479-2.145-0.996-4.325-3.713-4.325-3.713z" stroke="#1a171c" stroke-linecap="butt" stroke-miterlimit="3.86400008" stroke-dasharray="none" stroke-width="1" fill="none"/>
</g>
<g transform="translate(100.9961,733.394)">
<path fill-rule="nonzero" fill="#00009a" d="m0,0-44.735,0c1.226,2.42,2.76,4.671,2.719,7.606-0.037,2.582-0.985,3.732-2.042,5.944l5.738,8.499c2.531-1.097,4.195-1.408,6.952-1.299,3.708,0.146,6.019,0.967,8.95,3.193,3.031-2.226,5.344-3.047,9.052-3.193,2.756-0.109,4.421,0.202,6.951,1.299l5.737-8.499c-1.056-2.212-2.004-3.362-2.041-5.944-0.042-2.935,1.492-5.186,2.719-7.606"/>
</g>
<g transform="translate(100.9961,733.394)">
<path stroke-linejoin="miter" d="m0,0-44.735,0c1.226,2.42,2.76,4.671,2.719,7.606-0.037,2.582-0.985,3.732-2.042,5.944l5.738,8.499c2.531-1.097,4.195-1.408,6.952-1.299,3.708,0.146,6.019,0.967,8.95,3.193,3.031-2.226,5.344-3.047,9.052-3.193,2.756-0.109,4.421,0.202,6.951,1.299l5.737-8.499c-1.056-2.212-2.004-3.362-2.041-5.944-0.042-2.935,1.492-5.186,2.719-7.606z" stroke="#1a171c" stroke-linecap="butt" stroke-miterlimit="3.86400008" stroke-dasharray="none" stroke-width="1" fill="none"/>
</g>
<g transform="translate(92.9043,741.2612)">
<path fill-rule="evenodd" fill="#FFF" d="m0,0-8.869-6.443,3.389-10.427-8.87,6.444-8.869-6.444,3.388,10.427l-8.868,6.443h10.962l3.387,10.426,3.388-10.426h10.962z"/>
</g>
<g transform="translate(92.9043,741.2612)">
<path stroke-linejoin="miter" d="m0,0-8.869-6.443,3.389-10.427-8.87,6.444-8.869-6.444,3.388,10.427l-8.868,6.443h10.962l3.387,10.426,3.388-10.426h10.962z" stroke="#1a171c" stroke-linecap="butt" stroke-miterlimit="3.86400008" stroke-dasharray="none" stroke-width="1" fill="none"/>
</g>
</g>
</g>
</g>
</svg>
